<?xml version="1.0" encoding="utf-8"?>
<svg viewBox="0 0 110 28" xmlns="http://www.w3.org/2000/svg">
  <defs>
    <style>.cls-1{fill:#017CBF;}.cls-2{fill:#49ad33;}.cls-3{fill:#ffffff;}.cls-4{fill:#017CBF;}.cls-5{fill:none;stroke:#017CBF;stroke-miterlimit:10;stroke-width:2px;}</style>
  </defs>
  <title>logo_OPR_1</title>
  <g id="Lager_2" data-name="Lager 2">
    <g id="Lager_1-2" data-name="Lager 1">
      <path class="cls-1" d="M 7.231 4.008 C 7.231 4.008 5.776 9.476 9.097 12.509 C 12.06 15.217 21.297 15.401 19.404 22.304 C 19.404 22.304 18.368 26 12.78 26 C 12.78 26 4.293 25.774 2.233 16.683 C 2.244 16.685 0.34 8.569 7.231 4.008 Z" style="fill: rgb(5, 77, 85);"/>
      <path class="cls-2" d="M 8.55 3.51 C 8.55 3.51 5.785 11.854 13.807 13.755 C 13.807 13.755 17.474 14.917 19.844 17.09 C 19.844 17.09 22.782 19.939 19.265 24.883 C 19.265 24.883 27.359 20.964 25.8 11.882 C 24.243 2.8 13.776 1.196 10.829 2.309 C 12.439 3.146 14.179 3.704 15.974 3.957 C 18.91 4.357 19.976 5.646 19.976 5.646 L 15.752 4.802 L 21.043 9.343 C 21.043 9.343 23.176 11.078 22.999 11.837 C 22.999 11.837 21.176 9.961 20.82 10.101 C 20.82 10.101 23.466 13.414 22.597 18.294 C 22.597 18.294 22.643 11.97 18.017 8.054 C 18.017 8.054 17.84 11.08 18.373 12.194 C 18.373 12.194 17.227 11.659 17.134 6.985 C 17.134 6.985 14.907 5.294 12.823 4.67 C 12.641 6.271 12.855 7.891 13.445 9.39 C 13.445 9.39 12.11 9.482 11.622 4.182 C 11.615 4.18 10.864 3.734 8.55 3.51 Z"/>
      <path class="cls-3" d="M 6.673 5.839 C 6.673 5.839 6.205 5.605 6.005 5.839 C 5.805 6.074 3.904 8.175 3.744 8.51 C 3.582 8.844 2.671 11.383 2.671 11.483 C 2.505 12.251 2.45 13.039 2.505 13.823 C 2.604 15.156 3.271 15.756 3.302 15.957 C 3.397 16.275 3.508 16.589 3.637 16.895 C 3.637 16.895 3.871 16.995 3.902 16.661 C 3.935 16.327 3.702 15.926 3.602 15.592 C 3.504 15.258 3.337 15.289 3.368 14.889 C 3.4 14.489 3.402 14.221 3.169 14.122 C 2.968 14.05 2.824 13.875 2.793 13.665 C 2.793 13.521 2.694 13.254 2.793 13.053 C 2.893 12.853 3.059 12.385 3.226 12.385 C 3.527 12.405 3.804 12.55 3.993 12.785 C 4.227 13.085 4.259 13.275 4.368 13.665 C 4.476 14.055 4.701 14.189 4.766 13.988 C 4.832 13.788 4.633 13.487 4.834 13.187 C 5.034 12.886 5.1 12.811 5.397 12.753 C 5.646 12.714 5.885 12.625 6.097 12.487 C 6.363 12.32 6.564 12.286 6.659 12.153 C 6.783 12.024 6.948 11.941 7.126 11.917 C 7.293 11.884 7.525 11.884 7.559 11.683 C 7.593 11.483 7.126 10.744 7.126 10.744 C 7.053 10.504 6.997 10.26 6.96 10.011 C 6.929 9.712 6.904 9.319 6.704 9.319 C 6.504 9.319 6.105 9.695 6.037 9.82 C 5.99 9.978 5.935 10.135 5.87 10.286 C 5.759 10.433 5.624 10.561 5.472 10.662 C 5.422 10.569 5.388 10.467 5.369 10.362 C 5.348 10.148 5.407 9.933 5.536 9.761 C 5.737 9.494 5.836 9.494 5.969 9.127 C 6.103 8.76 6.236 8.426 6.303 8.292 C 6.371 8.16 6.538 7.993 6.538 7.79 C 6.538 7.59 6.704 6.556 6.572 6.322 Z" style="fill: rgb(49, 152, 204);"/>
      <path class="cls-3" d="M 4.47 17.201 C 4.47 17.201 4.637 17.334 4.47 17.935 C 4.353 18.401 4.297 18.882 4.306 19.363 C 4.306 19.597 4.253 19.998 4.547 20.232 C 4.841 20.466 4.839 20.566 4.972 20.666 C 5.149 20.807 5.305 20.976 5.43 21.165 C 5.682 21.468 5.961 21.747 6.265 22 C 6.444 22.144 6.575 22.341 6.638 22.563 C 6.67 22.773 6.737 22.977 6.84 23.164 C 6.938 23.331 7.007 23.539 7.105 23.597 C 7.244 23.713 7.402 23.803 7.572 23.864 C 7.906 23.997 8.105 23.997 8.272 24.164 C 8.376 24.3 8.513 24.403 8.672 24.465 C 8.906 24.564 9.138 24.363 9.339 24.465 C 9.54 24.565 9.506 24.823 9.873 24.493 C 10.091 24.312 10.292 24.112 10.473 23.895 C 10.64 23.695 10.64 23.595 10.906 23.462 C 11.167 23.34 11.387 23.144 11.54 22.899 C 11.64 22.676 11.706 22.439 11.74 22.197 C 11.74 22.197 11.307 21.662 11.106 21.634 C 10.906 21.606 10.405 21.533 10.405 21.533 C 10.137 21.38 9.858 21.246 9.572 21.133 C 9.47 21.133 8.634 20.598 8.605 20.499 C 8.574 20.399 8.37 19.765 8.37 19.765 C 8.37 19.765 7.908 19.464 7.837 19.43 C 7.644 19.377 7.463 19.286 7.304 19.163 C 7.129 18.913 6.985 18.643 6.871 18.361 L 6.138 17.86 L 5.737 17.459 C 5.737 17.459 4.804 16.858 4.47 17.201 Z" style="fill: rgb(49, 152, 204);"/>
      <path class="cls-3" d="M 15.737 16.424 C 15.737 16.424 15.27 16.657 15.337 17.09 C 15.401 17.524 15.149 17.693 15.337 18.259 C 15.401 18.546 15.54 18.811 15.737 19.029 C 15.785 19.198 15.865 19.357 15.97 19.497 C 16.103 19.629 16.004 19.898 16.345 19.998 C 16.685 20.097 17.077 20.23 17.344 20.165 C 17.548 20.107 17.748 20.041 17.944 19.963 C 18.111 19.878 18.292 19.821 18.479 19.796 C 18.679 19.796 18.98 19.729 18.98 19.629 L 18.98 19.067 C 18.98 19.067 18.679 18.349 18.479 18.316 C 18.278 18.282 18.012 18.241 17.88 17.972 C 17.746 17.704 17.742 17.459 17.612 17.325 C 17.48 17.192 17.372 16.653 17.124 16.638 C 16.771 16.585 16.42 16.514 16.075 16.424 Z" style="fill: rgb(49, 152, 204);"/>
      <path class="cls-3" d="M 6.005 15.454 L 5.773 15.557 C 5.773 15.557 5.84 15.932 5.773 16.024 C 5.705 16.117 5.889 16.195 5.889 16.195 L 6.005 15.82 Z"/>
      <path class="cls-4" d="M 35.875 15.263 C 35.831 16.724 34.68 17.872 33.3 17.831 C 31.432 17.931 30.161 15.852 31.013 14.087 C 31.449 13.183 32.345 12.636 33.3 12.688 C 34.683 12.647 35.835 13.799 35.875 15.263 Z M 34.553 15.249 C 34.556 14.908 34.435 14.577 34.215 14.327 C 33.995 14.076 33.687 13.932 33.363 13.936 C 33.045 13.932 32.74 14.076 32.531 14.327 C 32.292 14.572 32.16 14.909 32.167 15.263 C 32.163 15.618 32.293 15.96 32.531 16.211 C 32.744 16.458 33.047 16.597 33.363 16.596 C 33.685 16.596 33.992 16.458 34.215 16.211 C 34.437 15.948 34.559 15.604 34.553 15.249 Z" style="fill: rgb(5, 77, 85);"/>
      <path class="cls-4" d="M 37.916 13.265 C 38.276 12.917 38.74 12.719 39.225 12.701 C 40.519 12.758 41.524 13.913 41.475 15.281 L 41.475 17.698 L 40.191 17.698 L 40.191 15.281 C 40.231 14.592 39.733 13.997 39.081 13.956 C 38.429 13.997 37.933 14.592 37.973 15.281 L 37.973 17.698 L 36.62 17.698 L 36.62 12.833 L 37.684 12.833 Z" style="fill: rgb(5, 77, 85);"/>
      <path class="cls-4" d="M 46.553 16.928 C 46.097 17.502 45.423 17.832 44.713 17.831 C 42.837 17.831 41.665 15.678 42.603 13.958 C 43.54 12.237 45.885 12.237 46.823 13.958 C 47.036 14.351 47.149 14.796 47.149 15.249 C 47.151 15.406 47.136 15.562 47.105 15.714 L 43.68 15.714 C 43.739 15.888 43.827 16.048 43.943 16.185 C 44.149 16.438 44.448 16.582 44.763 16.584 C 45.06 16.578 45.344 16.45 45.552 16.224 Z M 45.865 14.85 C 45.812 14.645 45.713 14.457 45.577 14.299 C 45.371 14.057 45.077 13.919 44.769 13.914 C 44.457 13.919 44.161 14.057 43.948 14.299 C 43.82 14.463 43.723 14.65 43.66 14.85 Z" style="fill: rgb(5, 77, 85);"/>
      <path class="cls-4" d="M 51.499 13.397 C 52.844 12.013 55.1 12.689 55.559 14.617 C 55.947 16.246 54.788 17.826 53.201 17.831 C 52.565 17.835 51.952 17.57 51.499 17.094 L 51.499 21.222 L 50.247 21.222 L 50.247 12.833 L 51.399 12.833 Z M 53.873 14.32 C 53.659 14.069 53.353 13.926 53.033 13.929 C 52.711 13.925 52.401 14.068 52.181 14.32 C 51.704 14.836 51.704 15.662 52.181 16.178 C 52.403 16.425 52.712 16.563 53.033 16.563 C 53.352 16.563 53.655 16.424 53.873 16.178 C 54.351 15.662 54.351 14.836 53.873 14.32 Z" style="fill: rgb(5, 77, 85);"/>
      <path class="cls-4" d="M 56.479 17.698 L 56.479 9.303 L 57.844 9.303 L 57.844 17.698 Z" style="fill: rgb(5, 77, 85);"/>
      <path class="cls-4" d="M 63.732 12.833 L 63.732 17.698 L 62.604 17.698 L 62.604 17.226 C 61.177 18.508 58.976 17.672 58.641 15.722 C 58.308 13.771 60.092 12.169 61.853 12.839 C 62.128 12.941 62.383 13.097 62.604 13.298 L 62.711 12.833 Z M 62.367 15.263 C 62.369 14.914 62.244 14.578 62.016 14.327 C 61.797 14.081 61.495 13.942 61.177 13.942 C 60.855 13.944 60.548 14.081 60.324 14.327 C 60.099 14.58 59.973 14.915 59.973 15.263 C 59.975 15.61 60.1 15.945 60.324 16.198 C 60.548 16.442 60.855 16.582 61.177 16.584 C 61.495 16.583 61.797 16.445 62.016 16.198 C 62.244 15.948 62.369 15.612 62.367 15.263 Z" style="fill: rgb(5, 77, 85);"/>
      <path class="cls-4" d="M 65.88 13.265 C 66.24 12.917 66.704 12.719 67.19 12.701 C 68.483 12.758 69.488 13.913 69.438 15.281 L 69.438 17.698 L 68.142 17.698 L 68.142 15.281 C 68.232 14.377 67.366 13.709 66.582 14.077 C 66.138 14.285 65.872 14.772 65.924 15.281 L 65.924 17.698 L 64.584 17.698 L 64.584 12.833 L 65.667 12.833 Z" style="fill: rgb(5, 77, 85);"/>
      <path class="cls-4" d="M 74.519 16.928 C 74.06 17.502 73.386 17.832 72.676 17.831 C 70.8 17.831 69.628 15.678 70.567 13.958 C 71.504 12.237 73.85 12.237 74.787 13.958 C 75 14.351 75.114 14.796 75.114 15.249 C 75.115 15.406 75.1 15.562 75.07 15.714 L 71.643 15.714 C 71.702 15.888 71.791 16.048 71.907 16.185 C 72.112 16.438 72.412 16.582 72.727 16.584 C 73.024 16.578 73.308 16.45 73.516 16.224 Z M 73.83 14.85 C 73.776 14.645 73.678 14.457 73.542 14.299 C 73.335 14.057 73.04 13.919 72.734 13.914 C 72.422 13.919 72.124 14.057 71.912 14.299 C 71.784 14.463 71.687 14.65 71.624 14.85 Z" style="fill: rgb(5, 77, 85);"/>
      <path class="cls-4" d="M 78.896 12.833 L 78.896 14.16 L 77.832 14.16 L 77.832 17.705 L 76.479 17.705 L 76.479 14.16 L 75.52 14.16 L 75.52 12.833 L 76.479 12.833 L 76.479 11.029 L 77.832 11.029 L 77.832 12.833 Z" style="fill: rgb(5, 77, 85);"/>
      <path class="cls-4" d="M 82.727 13.385 C 83.121 12.924 83.693 12.678 84.28 12.72 C 84.544 12.72 84.807 12.763 85.056 12.853 L 84.537 14.122 C 83.823 13.764 82.983 14.214 82.833 15.037 L 82.833 17.691 L 81.5 17.691 L 81.5 12.828 L 82.532 12.828 Z" style="fill: rgb(5, 77, 85);"/>
      <path class="cls-4" d="M 90.249 12.833 L 90.249 17.698 L 89.135 17.698 L 89.135 17.226 C 87.708 18.508 85.507 17.672 85.172 15.722 C 84.837 13.771 86.621 12.169 88.383 12.839 C 88.657 12.941 88.912 13.097 89.135 13.298 L 89.241 12.833 Z M 88.909 15.256 C 88.913 14.908 88.788 14.571 88.557 14.32 C 88.34 14.076 88.037 13.936 87.719 13.936 C 87.397 13.937 87.091 14.076 86.868 14.32 C 86.641 14.573 86.516 14.909 86.516 15.256 C 86.517 15.604 86.643 15.937 86.868 16.191 C 87.091 16.437 87.397 16.575 87.719 16.577 C 88.037 16.576 88.34 16.438 88.557 16.191 C 88.785 15.942 88.911 15.609 88.909 15.263 Z" style="fill: rgb(5, 77, 85);"/>
      <path class="cls-4" d="M 94.459 12.833 L 94.459 14.16 L 93.395 14.16 L 93.395 17.705 L 92.041 17.705 L 92.041 14.16 L 91.083 14.16 L 91.083 12.833 L 92.041 12.833 L 92.041 11.029 L 93.395 11.029 L 93.395 12.833 Z" style="fill: rgb(5, 77, 85);"/>
      <path class="cls-4" d="M 95.291 11.367 L 95.291 9.788 L 96.651 9.788 L 96.651 11.367 Z M 95.291 17.698 L 95.291 12.833 L 96.651 12.833 L 96.651 17.698 Z" style="fill: rgb(5, 77, 85);"/>
      <path class="cls-4" d="M 98.812 13.265 C 99.171 12.917 99.635 12.719 100.121 12.701 C 101.413 12.758 102.419 13.913 102.369 15.281 L 102.369 17.698 L 101.073 17.698 L 101.073 15.281 C 101.164 14.377 100.297 13.709 99.512 14.077 C 99.069 14.285 98.804 14.772 98.856 15.281 L 98.856 17.698 L 97.516 17.698 L 97.516 12.833 L 98.599 12.833 Z" style="fill: rgb(5, 77, 85);"/>
      <path class="cls-4" d="M 107.343 13.603 C 107.684 13.985 107.875 14.491 107.876 15.017 C 107.821 16.287 106.807 17.27 105.608 17.214 C 105.444 17.213 105.28 17.196 105.12 17.16 C 105.019 17.349 104.932 17.544 104.856 17.745 C 105.124 17.708 105.395 17.69 105.665 17.691 C 106.333 17.646 107 17.798 107.595 18.13 C 108.048 18.418 108.324 18.937 108.32 19.497 C 108.339 20.05 108.075 20.571 107.632 20.863 C 106.383 21.45 104.959 21.45 103.711 20.863 C 103.267 20.571 103.003 20.05 103.021 19.497 C 103.017 19.268 103.059 19.042 103.147 18.833 C 103.396 18.074 103.752 17.358 104.199 16.709 C 103.685 16.307 103.377 15.674 103.365 14.997 C 103.413 13.733 104.416 12.749 105.608 12.793 C 105.715 12.789 105.821 12.789 105.928 12.793 L 108.12 12.355 L 108.12 13.29 Z M 107.005 19.49 C 107.005 19.151 106.46 18.972 105.665 18.972 C 104.869 18.972 104.324 19.185 104.324 19.49 C 104.324 19.794 104.812 20.007 105.665 20.007 C 106.516 20.007 107.005 19.848 107.005 19.49 Z M 104.651 15.012 C 104.651 15.798 105.453 16.289 106.097 15.894 C 106.395 15.714 106.579 15.375 106.579 15.012 C 106.559 14.465 106.121 14.045 105.608 14.076 C 105.101 14.058 104.676 14.474 104.651 15.012 Z" style="fill: rgb(5, 77, 85);"/>
      <line class="cls-5" x1="30.74" y1="20.698" x2="46.947" y2="20.698" style="stroke-width: 1; fill: rgb(5, 77, 85); stroke: rgb(5, 77, 85);"/>
    </g>
  </g>
</svg>